<mxfile host="app.diagrams.net" modified="2024-06-29T05:48:18.997Z" agent="Mozilla/5.0 (Macintosh; Intel Mac OS X 10.15; rv:127.0) Gecko/20100101 Firefox/127.0" etag="sdTjDxq9qCL45k0TNLnG" version="24.6.4" type="dropbox">
  <diagram name="Page-1" id="ZWp2QDc5SsxHrTfcxgkU">
    <mxGraphModel dx="1279" dy="839" grid="1" gridSize="10" guides="1" tooltips="1" connect="1" arrows="1" fold="1" page="1" pageScale="1" pageWidth="1169" pageHeight="827" math="0" shadow="0">
      <root>
        <mxCell id="0" />
        <mxCell id="1" parent="0" />
        <mxCell id="IG4EjO4jfMx0-XfCKTfD-26" value="" style="rounded=0;whiteSpace=wrap;html=1;fillColor=none;dashed=1;" vertex="1" parent="1">
          <mxGeometry x="341.5" y="250" width="170" height="260" as="geometry" />
        </mxCell>
        <mxCell id="IG4EjO4jfMx0-XfCKTfD-25" value="" style="rounded=0;whiteSpace=wrap;html=1;fillColor=none;dashed=1;" vertex="1" parent="1">
          <mxGeometry x="160" y="250" width="170" height="260" as="geometry" />
        </mxCell>
        <mxCell id="IG4EjO4jfMx0-XfCKTfD-39" value="" style="rounded=0;whiteSpace=wrap;html=1;fillColor=none;dashed=1;" vertex="1" parent="1">
          <mxGeometry x="789.5" y="250" width="170" height="190" as="geometry" />
        </mxCell>
        <mxCell id="IG4EjO4jfMx0-XfCKTfD-38" value="" style="rounded=0;whiteSpace=wrap;html=1;fillColor=none;dashed=1;" vertex="1" parent="1">
          <mxGeometry x="608" y="250" width="170" height="190" as="geometry" />
        </mxCell>
        <mxCell id="IG4EjO4jfMx0-XfCKTfD-1" value="&lt;font style=&quot;font-size: 24px;&quot;&gt;Virtual Machines&lt;/font&gt;" style="text;html=1;align=center;verticalAlign=middle;whiteSpace=wrap;rounded=0;" vertex="1" parent="1">
          <mxGeometry x="245" y="680" width="180" height="30" as="geometry" />
        </mxCell>
        <mxCell id="IG4EjO4jfMx0-XfCKTfD-3" value="&lt;font style=&quot;font-size: 18px;&quot;&gt;Infrastructure&lt;/font&gt;" style="rounded=0;whiteSpace=wrap;html=1;" vertex="1" parent="1">
          <mxGeometry x="160" y="596" width="350" height="60" as="geometry" />
        </mxCell>
        <mxCell id="IG4EjO4jfMx0-XfCKTfD-5" value="&lt;font style=&quot;font-size: 18px;&quot;&gt;Host OS + Hypervisor&lt;br&gt;&lt;/font&gt;" style="rounded=0;whiteSpace=wrap;html=1;" vertex="1" parent="1">
          <mxGeometry x="160" y="524" width="350" height="60" as="geometry" />
        </mxCell>
        <mxCell id="IG4EjO4jfMx0-XfCKTfD-8" value="&lt;font style=&quot;font-size: 18px;&quot;&gt;Guest OS&lt;br&gt;&lt;/font&gt;" style="rounded=0;whiteSpace=wrap;html=1;" vertex="1" parent="1">
          <mxGeometry x="174" y="440" width="145" height="60" as="geometry" />
        </mxCell>
        <mxCell id="IG4EjO4jfMx0-XfCKTfD-10" value="&lt;font style=&quot;font-size: 18px;&quot;&gt;Guest OS&lt;br&gt;&lt;/font&gt;" style="rounded=0;whiteSpace=wrap;html=1;" vertex="1" parent="1">
          <mxGeometry x="354" y="440" width="145" height="60" as="geometry" />
        </mxCell>
        <mxCell id="IG4EjO4jfMx0-XfCKTfD-11" value="&lt;font style=&quot;font-size: 18px;&quot;&gt;Libraries&lt;/font&gt;" style="rounded=0;whiteSpace=wrap;html=1;" vertex="1" parent="1">
          <mxGeometry x="174" y="370" width="145" height="60" as="geometry" />
        </mxCell>
        <mxCell id="IG4EjO4jfMx0-XfCKTfD-13" value="&lt;font style=&quot;font-size: 18px;&quot;&gt;Libraries&lt;/font&gt;" style="rounded=0;whiteSpace=wrap;html=1;" vertex="1" parent="1">
          <mxGeometry x="354" y="370" width="145" height="60" as="geometry" />
        </mxCell>
        <mxCell id="IG4EjO4jfMx0-XfCKTfD-14" value="&lt;font style=&quot;font-size: 18px;&quot;&gt;App 1&lt;br&gt;&lt;/font&gt;" style="rounded=0;whiteSpace=wrap;html=1;" vertex="1" parent="1">
          <mxGeometry x="174" y="300" width="145" height="60" as="geometry" />
        </mxCell>
        <mxCell id="IG4EjO4jfMx0-XfCKTfD-15" value="&lt;font style=&quot;font-size: 18px;&quot;&gt;App 2&lt;br&gt;&lt;/font&gt;" style="rounded=0;whiteSpace=wrap;html=1;" vertex="1" parent="1">
          <mxGeometry x="354" y="300" width="145" height="60" as="geometry" />
        </mxCell>
        <mxCell id="IG4EjO4jfMx0-XfCKTfD-27" value="&lt;font style=&quot;font-size: 18px;&quot;&gt;VM 1&lt;/font&gt;" style="text;html=1;align=center;verticalAlign=middle;whiteSpace=wrap;rounded=0;" vertex="1" parent="1">
          <mxGeometry x="216.5" y="260" width="60" height="30" as="geometry" />
        </mxCell>
        <mxCell id="IG4EjO4jfMx0-XfCKTfD-28" value="&lt;font style=&quot;font-size: 18px;&quot;&gt;VM 2&lt;/font&gt;" style="text;html=1;align=center;verticalAlign=middle;whiteSpace=wrap;rounded=0;" vertex="1" parent="1">
          <mxGeometry x="396.5" y="260" width="60" height="30" as="geometry" />
        </mxCell>
        <mxCell id="IG4EjO4jfMx0-XfCKTfD-29" value="&lt;font style=&quot;font-size: 24px;&quot;&gt;Containers&lt;/font&gt;" style="text;html=1;align=center;verticalAlign=middle;whiteSpace=wrap;rounded=0;" vertex="1" parent="1">
          <mxGeometry x="693" y="680" width="180" height="30" as="geometry" />
        </mxCell>
        <mxCell id="IG4EjO4jfMx0-XfCKTfD-30" value="&lt;font style=&quot;font-size: 18px;&quot;&gt;Infrastructure&lt;/font&gt;" style="rounded=0;whiteSpace=wrap;html=1;" vertex="1" parent="1">
          <mxGeometry x="608" y="596" width="350" height="60" as="geometry" />
        </mxCell>
        <mxCell id="IG4EjO4jfMx0-XfCKTfD-31" value="&lt;font style=&quot;font-size: 18px;&quot;&gt;Host OS&lt;br&gt;&lt;/font&gt;" style="rounded=0;whiteSpace=wrap;html=1;" vertex="1" parent="1">
          <mxGeometry x="608" y="524" width="350" height="60" as="geometry" />
        </mxCell>
        <mxCell id="IG4EjO4jfMx0-XfCKTfD-34" value="&lt;font style=&quot;font-size: 18px;&quot;&gt;Libraries&lt;/font&gt;" style="rounded=0;whiteSpace=wrap;html=1;" vertex="1" parent="1">
          <mxGeometry x="622" y="370" width="145" height="60" as="geometry" />
        </mxCell>
        <mxCell id="IG4EjO4jfMx0-XfCKTfD-35" value="&lt;font style=&quot;font-size: 18px;&quot;&gt;Libraries&lt;/font&gt;" style="rounded=0;whiteSpace=wrap;html=1;" vertex="1" parent="1">
          <mxGeometry x="802" y="370" width="145" height="60" as="geometry" />
        </mxCell>
        <mxCell id="IG4EjO4jfMx0-XfCKTfD-36" value="&lt;font style=&quot;font-size: 18px;&quot;&gt;App 1&lt;br&gt;&lt;/font&gt;" style="rounded=0;whiteSpace=wrap;html=1;" vertex="1" parent="1">
          <mxGeometry x="622" y="300" width="145" height="60" as="geometry" />
        </mxCell>
        <mxCell id="IG4EjO4jfMx0-XfCKTfD-37" value="&lt;font style=&quot;font-size: 18px;&quot;&gt;App 2&lt;br&gt;&lt;/font&gt;" style="rounded=0;whiteSpace=wrap;html=1;" vertex="1" parent="1">
          <mxGeometry x="802" y="300" width="145" height="60" as="geometry" />
        </mxCell>
        <mxCell id="IG4EjO4jfMx0-XfCKTfD-40" value="&lt;font style=&quot;font-size: 18px;&quot;&gt;Container 2&lt;/font&gt;" style="text;html=1;align=center;verticalAlign=middle;whiteSpace=wrap;rounded=0;" vertex="1" parent="1">
          <mxGeometry x="823.75" y="260" width="101.5" height="30" as="geometry" />
        </mxCell>
        <mxCell id="IG4EjO4jfMx0-XfCKTfD-42" value="&lt;font style=&quot;font-size: 18px;&quot;&gt;Container Engine&lt;br&gt;&lt;/font&gt;" style="rounded=0;whiteSpace=wrap;html=1;" vertex="1" parent="1">
          <mxGeometry x="608" y="450" width="350" height="60" as="geometry" />
        </mxCell>
        <mxCell id="IG4EjO4jfMx0-XfCKTfD-43" value="&lt;font style=&quot;font-size: 18px;&quot;&gt;Container 1&lt;/font&gt;" style="text;html=1;align=center;verticalAlign=middle;whiteSpace=wrap;rounded=0;" vertex="1" parent="1">
          <mxGeometry x="643.75" y="260" width="101.5" height="30" as="geometry" />
        </mxCell>
      </root>
    </mxGraphModel>
  </diagram>
</mxfile>
